<!--?xml version="1.0" standalone="no"?-->
              <svg id="sw-js-blob-svg" viewBox="0 0 100 100" xmlns="http://www.w3.org/2000/svg" version="1.1">
                    <defs> 
                        <linearGradient id="sw-gradient" x1="0" x2="1" y1="1" y2="0">
                            <stop id="stop1" stop-color="rgba(248, 117, 55, 1)" offset="0%"></stop>
                            <stop id="stop2" stop-color="rgba(251, 168, 31, 1)" offset="100%"></stop>
                        </linearGradient>
                    </defs>
                <path fill="url(#sw-gradient)" d="M22.7,-27.3C30.2,-20.7,37.7,-14.3,40.3,-6.1C42.9,2.1,40.6,12.1,34.8,18.1C29,24.1,19.6,26.1,10.4,30C1.3,34,-7.7,39.9,-14.7,38.2C-21.7,36.6,-26.7,27.5,-29.7,18.8C-32.7,10.2,-33.7,2,-32.1,-5.5C-30.6,-13,-26.5,-19.8,-20.7,-26.7C-14.9,-33.6,-7.5,-40.6,0.1,-40.7C7.6,-40.8,15.2,-33.9,22.7,-27.3Z" width="100%" height="100%" transform="translate(50 50)" stroke-width="0" style="transition: all 0.3s ease 0s;"></path>
              </svg>